<?xml version="1.0" encoding="utf-8"?>
<!-- Generator: Adobe Illustrator 25.0.0, SVG Export Plug-In . SVG Version: 6.00 Build 0)  -->
<svg version="1.1" id="레이어_1" xmlns="http://www.w3.org/2000/svg" xmlns:xlink="http://www.w3.org/1999/xlink" x="0px"
	 y="0px" viewBox="0 0 500 500" style="enable-background:new 0 0 500 500;" xml:space="preserve">
<style type="text/css">
	.st0{fill:#FFFFFF;}
</style>
<g>
	<circle class="st0" cx="250" cy="250" r="199"/>
	<path d="M250,52c26.73,0,52.66,5.23,77.07,15.56c23.58,9.97,44.75,24.25,62.94,42.43c18.18,18.18,32.46,39.36,42.43,62.94
		C442.77,197.34,448,223.27,448,250s-5.23,52.66-15.56,77.07c-9.97,23.58-24.25,44.75-42.43,62.94
		c-18.18,18.18-39.36,32.46-62.94,42.43C302.66,442.77,276.73,448,250,448s-52.66-5.23-77.07-15.56
		c-23.58-9.97-44.75-24.25-62.94-42.43c-18.18-18.18-32.46-39.36-42.43-62.94C57.23,302.66,52,276.73,52,250s5.23-52.66,15.56-77.07
		c9.97-23.58,24.25-44.75,42.43-62.94c18.18-18.18,39.36-32.46,62.94-42.43C197.34,57.23,223.27,52,250,52 M250,50
		C139.54,50,50,139.54,50,250s89.54,200,200,200s200-89.54,200-200S360.46,50,250,50L250,50z"/>
</g>
</svg>
